<svg width="156" height="30" viewBox="0 0 156 30" fill="none" xmlns="http://www.w3.org/2000/svg">
<path d="M7.62296 1.96267C5.32296 3.16267 3.02296 5.46267 1.82296 7.86267C-4.77704 20.7627 7.62296 33.6627 21.723 28.7627C24.123 27.9627 25.623 27.8627 27.423 28.7627L29.823 29.8627V20.7627C29.823 9.66267 27.823 4.96267 21.823 1.86267C16.923 -0.637327 12.423 -0.637327 7.62296 1.96267ZM20.923 8.76267C24.823 12.7627 24.823 16.9627 20.923 20.9627C18.923 22.9627 17.023 23.8627 14.823 23.8627C12.623 23.8627 10.723 22.9627 8.72296 20.9627C4.82296 16.9627 4.82296 12.7627 8.72296 8.76267C10.723 6.76267 12.623 5.86267 14.823 5.86267C17.023 5.86267 18.923 6.76267 20.923 8.76267Z" fill="#444444"/>
<path d="M11.823 12.3627C10.323 14.1627 10.823 16.8627 13.123 18.2627C16.523 20.4627 20.423 15.5627 17.823 12.3627C16.223 10.4627 13.423 10.4627 11.823 12.3627Z" fill="#444444"/>
<path d="M60.1562 19.4844H53.9922L52.8203 23H49.082L55.4336 5.9375H58.6914L65.0781 23H61.3398L60.1562 19.4844ZM54.9414 16.6367H59.207L57.0625 10.25L54.9414 16.6367ZM65.9219 16.5664C65.9219 14.5898 66.3633 13.0156 67.2461 11.8438C68.1367 10.6719 69.3516 10.0859 70.8906 10.0859C72.125 10.0859 73.1445 10.5469 73.9492 11.4688V5H77.3477V23H74.2891L74.125 21.6523C73.2812 22.707 72.1953 23.2344 70.8672 23.2344C69.375 23.2344 68.1758 22.6484 67.2695 21.4766C66.3711 20.2969 65.9219 18.6602 65.9219 16.5664ZM69.3086 16.8125C69.3086 18 69.5156 18.9102 69.9297 19.543C70.3438 20.1758 70.9453 20.4922 71.7344 20.4922C72.7812 20.4922 73.5195 20.0508 73.9492 19.168V14.1641C73.5273 13.2812 72.7969 12.8398 71.7578 12.8398C70.125 12.8398 69.3086 14.1641 69.3086 16.8125ZM83.1484 10.3203L83.2539 11.7383C84.1523 10.6367 85.3672 10.0859 86.8984 10.0859C88.5312 10.0859 89.6523 10.7305 90.2617 12.0195C91.1523 10.7305 92.4219 10.0859 94.0703 10.0859C95.4453 10.0859 96.4688 10.4883 97.1406 11.293C97.8125 12.0898 98.1484 13.293 98.1484 14.9023V23H94.75V14.9141C94.75 14.1953 94.6094 13.6719 94.3281 13.3438C94.0469 13.0078 93.5508 12.8398 92.8398 12.8398C91.8242 12.8398 91.1211 13.3242 90.7305 14.293L90.7422 23H87.3555V14.9258C87.3555 14.1914 87.2109 13.6602 86.9219 13.332C86.6328 13.0039 86.1406 12.8398 85.4453 12.8398C84.4844 12.8398 83.7891 13.2383 83.3594 14.0352V23H79.9727V10.3203H83.1484ZM104.336 23H100.938V10.3203H104.336V23ZM100.738 7.03906C100.738 6.53125 100.906 6.11328 101.242 5.78516C101.586 5.45703 102.051 5.29297 102.637 5.29297C103.215 5.29297 103.676 5.45703 104.02 5.78516C104.363 6.11328 104.535 6.53125 104.535 7.03906C104.535 7.55469 104.359 7.97656 104.008 8.30469C103.664 8.63281 103.207 8.79688 102.637 8.79688C102.066 8.79688 101.605 8.63281 101.254 8.30469C100.91 7.97656 100.738 7.55469 100.738 7.03906ZM110.254 10.3203L110.359 11.7852C111.266 10.6523 112.48 10.0859 114.004 10.0859C115.348 10.0859 116.348 10.4805 117.004 11.2695C117.66 12.0586 117.996 13.2383 118.012 14.8086V23H114.625V14.8906C114.625 14.1719 114.469 13.6523 114.156 13.332C113.844 13.0039 113.324 12.8398 112.598 12.8398C111.645 12.8398 110.93 13.2461 110.453 14.0586V23H107.066V10.3203H110.254ZM122.887 16.0508V23H121.445V5.9375H127.258C129.031 5.9375 130.43 6.39063 131.453 7.29688C132.484 8.20312 133 9.44922 133 11.0352C133 12.6367 132.504 13.875 131.512 14.75C130.527 15.6172 129.098 16.0508 127.223 16.0508H122.887ZM122.887 14.832H127.258C128.656 14.832 129.723 14.5 130.457 13.8359C131.191 13.1719 131.559 12.2461 131.559 11.0586C131.559 9.87891 131.191 8.94141 130.457 8.24609C129.73 7.54297 128.695 7.18359 127.352 7.16797H122.887V14.832ZM141.766 11.5156C141.469 11.4609 141.152 11.4336 140.816 11.4336C139.941 11.4336 139.199 11.6797 138.59 12.1719C137.988 12.6562 137.559 13.3633 137.301 14.293V23H135.906V10.3203H137.277L137.301 12.3359C138.043 10.8359 139.234 10.0859 140.875 10.0859C141.266 10.0859 141.574 10.1367 141.801 10.2383L141.766 11.5156ZM142.984 16.4727C142.984 15.2539 143.219 14.1562 143.688 13.1797C144.164 12.2031 144.832 11.4453 145.691 10.9062C146.559 10.3594 147.539 10.0859 148.633 10.0859C150.32 10.0859 151.688 10.6797 152.734 11.8672C153.781 13.0469 154.305 14.6133 154.305 16.5664V16.8594C154.305 18.0859 154.066 19.1914 153.59 20.1758C153.121 21.1523 152.457 21.9062 151.598 22.4375C150.738 22.9688 149.758 23.2344 148.656 23.2344C146.977 23.2344 145.609 22.6445 144.555 21.4648C143.508 20.2773 142.984 18.707 142.984 16.7539V16.4727ZM144.391 16.8594C144.391 18.375 144.781 19.6211 145.562 20.5977C146.352 21.5664 147.383 22.0508 148.656 22.0508C149.922 22.0508 150.945 21.5664 151.727 20.5977C152.516 19.6211 152.91 18.3359 152.91 16.7422V16.4727C152.91 15.5039 152.73 14.6172 152.371 13.8125C152.012 13.0078 151.508 12.3867 150.859 11.9492C150.211 11.5039 149.469 11.2812 148.633 11.2812C147.383 11.2812 146.363 11.7734 145.574 12.7578C144.785 13.7344 144.391 15.0156 144.391 16.6016V16.8594Z" fill="#444444"/>
</svg>
